<?xml version="1.0" standalone="no"?>
<!DOCTYPE svg PUBLIC "-//W3C//DTD SVG 20010904//EN"
 "http://www.w3.org/TR/2001/REC-SVG-20010904/DTD/svg10.dtd">
<svg version="1.0" xmlns="http://www.w3.org/2000/svg"
 width="2381.000000pt" height="2381.000000pt" viewBox="0 0 2381.000000 2381.000000"
 preserveAspectRatio="xMidYMid meet">
<metadata>
Created by potrace 1.14, written by Peter Selinger 2001-2017
</metadata>
<g transform="translate(0.000000,2381.000000) scale(0.100000,-0.100000)"
fill="#000000" stroke="none">
<path d="M13735 23650 c-88 -16 -176 -31 -195 -34 -19 -3 -44 -7 -55 -10 -25
-5 -307 -54 -359 -62 -21 -3 -48 -8 -60 -10 -11 -2 -37 -7 -56 -10 -19 -3 -71
-12 -115 -20 -146 -26 -429 -75 -465 -80 -19 -3 -42 -7 -50 -9 -8 -3 -33 -7
-55 -10 -22 -4 -76 -13 -120 -20 -44 -8 -96 -17 -115 -20 -19 -3 -57 -10 -85
-15 -27 -5 -66 -12 -85 -15 -63 -10 -84 -14 -175 -31 -49 -8 -103 -18 -120
-20 -24 -3 -246 -42 -330 -58 -30 -5 -85 -15 -125 -21 -19 -3 -136 -23 -260
-45 -277 -48 -503 -87 -554 -95 -21 -4 -48 -9 -60 -11 -11 -2 -37 -7 -56 -10
-19 -2 -46 -7 -60 -10 -65 -12 -77 -14 -115 -20 -22 -3 -62 -10 -90 -15 -27
-5 -66 -12 -85 -15 -19 -2 -57 -9 -85 -15 -27 -5 -66 -12 -85 -15 -19 -3 -82
-14 -140 -24 -58 -10 -121 -21 -140 -24 -19 -3 -44 -7 -55 -10 -11 -2 -40 -7
-65 -11 -25 -4 -54 -9 -65 -11 -16 -3 -278 -49 -400 -69 -16 -3 -52 -10 -80
-15 -27 -5 -63 -11 -80 -14 -25 -3 -179 -30 -300 -51 -16 -3 -55 -10 -85 -15
-92 -16 -120 -21 -260 -45 -74 -13 -151 -26 -170 -29 -19 -3 -45 -8 -57 -10
-11 -3 -43 -8 -70 -12 -26 -5 -50 -9 -53 -9 -3 -1 -25 -5 -50 -9 -25 -5 -54
-10 -65 -12 -11 -2 -40 -7 -65 -10 -25 -3 -48 -8 -51 -10 -4 -2 -28 -6 -55 -9
-27 -4 -80 -12 -119 -20 -38 -8 -86 -16 -105 -19 -19 -3 -98 -17 -175 -30 -77
-13 -153 -27 -170 -29 -16 -3 -68 -12 -115 -21 -47 -8 -101 -18 -120 -20 -19
-3 -46 -8 -60 -10 -103 -19 -331 -59 -355 -62 -16 -3 -52 -9 -80 -14 -27 -5
-117 -21 -200 -35 -217 -38 -256 -45 -295 -51 -19 -3 -42 -7 -50 -9 -8 -2 -37
-7 -65 -11 -27 -3 -52 -8 -55 -9 -3 -2 -26 -6 -50 -10 -25 -3 -92 -14 -150
-25 -58 -10 -123 -21 -145 -25 -22 -3 -47 -7 -55 -10 -8 -2 -33 -6 -55 -10
-22 -3 -128 -21 -235 -40 -107 -18 -208 -36 -225 -39 -29 -4 -353 -61 -405
-70 -28 -5 -89 -15 -135 -22 -16 -3 -50 -9 -75 -14 -25 -5 -65 -12 -90 -16
-25 -5 -47 -8 -50 -9 -3 0 -27 -4 -53 -9 -27 -4 -58 -9 -70 -12 -12 -2 -39 -6
-62 -9 -22 -3 -47 -8 -55 -10 -13 -4 -348 -62 -405 -71 -11 -1 -58 -9 -105
-18 -47 -8 -177 -31 -290 -51 -113 -19 -216 -37 -230 -40 -22 -3 -392 -68
-460 -79 -14 -3 -77 -14 -140 -25 -63 -11 -135 -23 -160 -26 -25 -3 -52 -7
-60 -10 -19 -5 -50 -11 -165 -30 -49 -8 -101 -17 -115 -20 -13 -2 -42 -7 -65
-11 -22 -3 -58 -9 -80 -14 -22 -5 -62 -12 -90 -15 -27 -4 -81 -13 -120 -20
-38 -8 -83 -16 -100 -19 -35 -6 -256 -44 -300 -51 -143 -26 -256 -45 -285 -50
-123 -20 -282 -47 -323 -56 l-47 -11 2 -9366 3 -9365 25 -4 c14 -2 61 -10 105
-18 78 -13 129 -22 190 -31 17 -3 50 -9 75 -14 25 -5 61 -11 80 -14 19 -4 46
-8 60 -11 13 -3 42 -7 65 -10 22 -3 47 -8 55 -10 8 -2 29 -6 45 -9 17 -3 46
-8 65 -11 19 -3 98 -17 175 -30 77 -13 232 -40 345 -60 113 -19 219 -37 235
-40 17 -3 53 -10 80 -15 28 -5 70 -12 95 -16 64 -9 75 -11 175 -29 50 -9 104
-18 120 -21 17 -2 41 -7 55 -9 96 -19 114 -23 250 -45 36 -5 76 -12 90 -15 14
-2 117 -20 230 -40 113 -19 216 -37 230 -40 14 -2 66 -11 115 -20 50 -8 104
-17 120 -20 17 -3 53 -10 80 -15 28 -5 66 -11 85 -14 19 -3 73 -12 120 -20 47
-8 124 -22 172 -30 48 -9 97 -18 110 -20 13 -3 41 -8 62 -11 21 -3 90 -14 152
-26 62 -11 127 -22 143 -24 17 -2 54 -8 83 -14 29 -6 64 -12 78 -15 14 -2 41
-7 60 -10 19 -3 49 -8 65 -11 17 -2 41 -7 55 -9 27 -6 91 -16 127 -21 11 -2
29 -5 40 -8 10 -3 43 -9 73 -12 30 -4 57 -8 60 -10 4 -3 180 -34 285 -51 17
-2 82 -14 145 -25 63 -11 126 -22 140 -24 14 -2 66 -11 115 -20 50 -9 153 -27
230 -40 77 -13 205 -35 285 -49 80 -14 163 -28 185 -31 22 -4 47 -8 55 -10 8
-3 33 -7 55 -10 38 -6 59 -9 115 -20 14 -3 39 -7 55 -10 17 -2 53 -8 80 -14
28 -5 68 -12 90 -15 23 -4 52 -9 65 -11 14 -3 66 -12 115 -20 50 -8 101 -17
115 -20 14 -3 40 -7 58 -10 19 -2 70 -11 115 -20 45 -8 161 -28 257 -45 96
-16 200 -34 230 -40 30 -5 136 -23 235 -40 254 -44 380 -66 422 -74 11 -3 43
-8 70 -12 26 -3 57 -8 68 -10 11 -3 35 -7 54 -10 18 -3 43 -8 55 -10 26 -5
191 -33 231 -40 17 -2 53 -9 80 -14 28 -5 70 -12 95 -15 25 -3 61 -10 80 -15
19 -5 53 -11 75 -14 38 -5 69 -11 125 -21 14 -3 43 -7 65 -11 22 -3 47 -7 55
-9 8 -2 38 -7 65 -11 28 -3 52 -8 55 -9 3 -2 24 -6 46 -9 22 -4 51 -9 64 -11
14 -3 41 -8 60 -11 19 -2 46 -7 60 -10 14 -2 39 -7 55 -9 17 -3 53 -10 80 -15
46 -8 73 -13 160 -26 17 -3 53 -9 80 -14 59 -11 73 -14 230 -40 66 -12 131
-23 145 -25 87 -16 320 -57 345 -60 17 -3 41 -7 55 -10 22 -5 95 -17 185 -31
17 -2 50 -9 75 -14 25 -5 61 -12 80 -15 19 -2 62 -9 95 -15 33 -6 98 -17 145
-25 47 -8 96 -17 110 -20 14 -3 39 -7 55 -10 31 -5 50 -8 150 -25 33 -5 71
-12 85 -15 14 -2 117 -20 230 -40 113 -19 216 -37 230 -40 84 -14 219 -38 245
-42 36 -5 180 -31 215 -37 14 -3 104 -19 200 -35 96 -16 189 -32 205 -35 17
-4 122 -22 235 -41 113 -19 215 -37 226 -39 34 -7 97 -17 124 -21 14 -2 77
-13 140 -24 63 -12 133 -23 155 -26 22 -3 48 -8 58 -11 16 -5 17 560 17 11770
0 6477 -3 11776 -7 11775 -5 -1 -80 -14 -168 -29z"/>
<path d="M15928 19665 c-2 -1 -34 -5 -73 -9 -176 -16 -289 -40 -457 -96 -164
-55 -246 -96 -378 -190 -63 -45 -158 -107 -211 -138 l-95 -56 0 -1644 1 -1645
65 -34 c65 -35 233 -145 258 -170 25 -25 150 -94 231 -128 152 -64 354 -118
536 -141 71 -10 428 -10 500 -2 291 36 569 129 825 276 43 24 189 121 200 132
3 3 38 31 78 63 222 178 427 435 562 706 87 176 170 433 194 606 3 22 10 69
15 105 10 69 7 438 -4 505 -64 405 -189 709 -414 1010 -41 55 -106 133 -145
173 -39 40 -73 76 -76 80 -5 8 -139 123 -186 160 -52 42 -217 149 -284 184
-157 84 -400 176 -530 202 -14 2 -47 9 -75 15 -27 5 -70 12 -95 15 -25 4 -62
9 -83 12 -39 6 -353 14 -359 9z"/>
<path d="M21558 18325 c-2 -1 -45 -6 -97 -9 -51 -4 -112 -11 -135 -15 -22 -5
-57 -12 -76 -15 -120 -19 -302 -76 -445 -138 -82 -36 -283 -143 -295 -157 -3
-3 -34 -26 -70 -50 -177 -121 -356 -295 -508 -496 -71 -93 -188 -304 -242
-435 -74 -181 -106 -305 -147 -560 -16 -100 -8 -475 12 -595 5 -28 8 -43 19
-100 57 -282 202 -601 382 -840 203 -270 470 -490 769 -635 312 -152 617 -220
965 -215 165 2 231 8 350 31 41 9 86 17 100 20 130 24 354 108 508 189 284
151 516 347 709 600 198 261 335 565 392 873 11 59 23 123 27 142 13 72 13
454 -1 545 -38 256 -103 472 -200 666 -224 447 -575 792 -1015 998 -77 36
-116 51 -245 96 -45 16 -230 61 -285 70 -19 3 -46 7 -60 10 -72 13 -401 30
-412 20z"/>
<path d="M14716 14040 c-2 -3 -3 -2131 -2 -4728 l1 -4724 155 -40 c218 -55
307 -76 365 -83 28 -4 57 -8 65 -10 8 -2 42 -7 75 -10 33 -4 71 -8 85 -11 140
-24 699 -24 889 1 20 2 77 10 126 16 50 6 99 13 110 15 11 2 40 7 65 10 25 3
77 13 115 21 39 8 81 17 95 19 271 52 606 178 845 317 39 23 82 48 97 57 115
64 376 293 483 423 119 145 211 294 278 447 64 147 123 347 142 485 3 19 8 52
12 73 11 66 10 7722 -1 7723 -34 5 -3998 3 -4000 -1z"/>
<path d="M19532 9496 l3 -3211 615 1 c548 1 734 5 905 19 76 6 187 17 215 20
14 2 48 6 75 10 52 6 119 15 145 20 8 1 35 6 60 10 25 4 54 9 65 11 11 2 40 7
65 10 25 3 48 8 52 11 4 2 31 8 60 13 66 11 82 15 138 30 25 7 50 13 55 14 92
20 344 109 486 170 189 84 451 233 549 315 14 11 30 24 35 28 111 85 253 224
357 349 184 224 319 513 367 789 6 33 13 74 17 90 4 17 8 1038 9 2271 l2 2241
-2138 0 -2139 0 2 -3211z"/>
</g>
</svg>
